<mxfile host="app.diagrams.net" modified="2022-02-02T17:12:19.400Z" agent="5.0 (Windows)" etag="w-j0ULSpZgZhyb_RieCM" version="16.5.3" type="github">
  <diagram id="3zvb2Pmbj-kzj2ok7mTF" name="Page-1">
    <mxGraphModel dx="1302" dy="725" grid="1" gridSize="10" guides="1" tooltips="1" connect="1" arrows="1" fold="1" page="1" pageScale="1" pageWidth="500" pageHeight="500" math="0" shadow="0">
      <root>
        <mxCell id="0" />
        <mxCell id="1" parent="0" />
        <mxCell id="819CqumKZ4k9OAdhkrRl-1" value="RasperryPi4" style="whiteSpace=wrap;html=1;aspect=fixed;verticalAlign=top;" parent="1" vertex="1">
          <mxGeometry x="40" y="40" width="260" height="260" as="geometry" />
        </mxCell>
        <mxCell id="819CqumKZ4k9OAdhkrRl-4" value="Container Engine - Docker" style="whiteSpace=wrap;html=1;aspect=fixed;verticalAlign=top;" parent="1" vertex="1">
          <mxGeometry x="57.5" y="75" width="225" height="225" as="geometry" />
        </mxCell>
        <mxCell id="819CqumKZ4k9OAdhkrRl-5" value="OS - Ubuntu Server" style="whiteSpace=wrap;html=1;aspect=fixed;verticalAlign=top;" parent="1" vertex="1">
          <mxGeometry x="75" y="110" width="190" height="190" as="geometry" />
        </mxCell>
        <mxCell id="819CqumKZ4k9OAdhkrRl-6" value="Python 3" style="whiteSpace=wrap;html=1;aspect=fixed;verticalAlign=top;" parent="1" vertex="1">
          <mxGeometry x="100" y="152.5" width="70" height="70" as="geometry" />
        </mxCell>
        <mxCell id="819CqumKZ4k9OAdhkrRl-7" value="Tensorflow Lite" style="whiteSpace=wrap;html=1;aspect=fixed;verticalAlign=top;" parent="1" vertex="1">
          <mxGeometry x="170" y="152.5" width="70" height="70" as="geometry" />
        </mxCell>
      </root>
    </mxGraphModel>
  </diagram>
</mxfile>
